<svg width="23" height="24" viewBox="0 0 23 24" fill="none" xmlns="http://www.w3.org/2000/svg">
<g clip-path="url(#clip0_1_6435)">
<path d="M16.2317 22.5082C17.1801 22.4583 18.0036 22.3168 18.7024 22.0839C19.5343 21.7844 20.2581 21.3269 20.8737 20.7113C21.4893 20.0957 21.9468 19.372 22.2463 18.5401C22.4792 17.8413 22.6206 17.0177 22.6705 16.0694C22.7204 15.121 22.7454 13.5654 22.7454 11.4025C22.7454 9.23957 22.7288 7.69227 22.6955 6.76055C22.6289 5.79556 22.4792 4.96368 22.2463 4.26489C21.9468 3.43301 21.4893 2.70926 20.8737 2.09367C20.2581 1.47807 19.5343 1.02053 18.7024 0.721056C18.0036 0.488128 17.1801 0.346707 16.2317 0.296794C15.2834 0.24688 13.7277 0.221924 11.5648 0.221924C9.40194 0.221924 7.84631 0.24688 6.89796 0.296794C5.94961 0.346707 5.12604 0.488128 4.42726 0.721056C3.59537 1.02053 2.87163 1.47807 2.25603 2.09367C1.64044 2.70926 1.1829 3.43301 0.883418 4.26489C0.65049 4.96368 0.509069 5.78725 0.459156 6.7356C0.413236 7.60808 0.388439 8.99456 0.384766 10.895V11.9099C0.388439 13.8104 0.413236 15.1969 0.459156 16.0694C0.509069 17.0177 0.65049 17.8413 0.883418 18.5401C1.1829 19.372 1.64044 20.0957 2.25603 20.7113C2.87163 21.3269 3.59537 21.7678 4.42726 22.034C5.12604 22.3002 5.94961 22.4583 6.89796 22.5082C7.77044 22.5541 9.15692 22.5789 11.0574 22.5826H12.0723C13.9728 22.5789 15.3592 22.5541 16.2317 22.5082ZM12.6008 20.5865H10.7662C9.43521 20.5865 8.40367 20.5699 7.67161 20.5366C6.44042 20.47 5.54198 20.3369 4.9763 20.1373C3.97804 19.738 3.26261 19.0226 2.83003 17.991C2.63038 17.4253 2.49728 16.5269 2.43073 15.2957C2.39953 14.6094 2.38296 13.6599 2.38101 12.4471L2.38081 10.6039C2.38081 9.27285 2.39745 8.24131 2.43073 7.50925C2.49728 6.24478 2.63038 5.34635 2.83003 4.81394C3.22934 3.7824 3.94476 3.06698 4.9763 2.66767C5.54198 2.46802 6.44042 2.33492 7.67161 2.26836C8.35792 2.23717 9.30744 2.2206 10.5202 2.21865L12.3635 2.21845C13.6945 2.21845 14.726 2.23509 15.4581 2.26836C16.7225 2.33492 17.621 2.46802 18.1534 2.66767C19.1849 3.06698 19.9003 3.7824 20.2997 4.81394C20.4993 5.34635 20.6324 6.24478 20.699 7.50925C20.7303 8.16693 20.7469 9.11937 20.7489 10.3666V12.2011C20.7489 13.5321 20.7322 14.5636 20.699 15.2957C20.6324 16.5269 20.4993 17.4253 20.2997 17.991C19.9003 18.9893 19.1849 19.7047 18.1534 20.1373C17.621 20.3369 16.7225 20.47 15.4581 20.5366C14.8004 20.5679 13.848 20.5845 12.6008 20.5865ZM17.5544 6.76055C17.9205 6.76055 18.2283 6.62745 18.4778 6.36125C18.7274 6.09504 18.8688 5.77893 18.9021 5.4129C18.9021 5.04687 18.769 4.73075 18.5028 4.46455C18.2366 4.19834 17.9205 4.06524 17.5544 4.06524C17.1884 4.06524 16.8723 4.19834 16.6061 4.46455C16.3399 4.73075 16.2068 5.04687 16.2068 5.4129C16.2068 5.77893 16.3399 6.09504 16.6061 6.36125C16.8723 6.62745 17.1884 6.76055 17.5544 6.76055ZM11.5648 17.1425C12.5964 17.1425 13.5531 16.8846 14.4349 16.3688C15.3167 15.8531 16.0154 15.1543 16.5312 14.2725C17.047 13.3907 17.3049 12.434 17.3049 11.4025C17.3049 10.3709 17.047 9.41427 16.5312 8.53247C16.0154 7.65067 15.3167 6.95189 14.4349 6.43612C13.5531 5.92035 12.5964 5.66246 11.5648 5.66246C10.5333 5.66246 9.57663 5.92035 8.69483 6.43612C7.81303 6.95189 7.11425 7.65067 6.59848 8.53247C6.08271 9.41427 5.82482 10.3709 5.82482 11.4025C5.82482 12.434 6.08271 13.3907 6.59848 14.2725C7.11425 15.1543 7.81303 15.8531 8.69483 16.3688C9.57663 16.8846 10.5333 17.1425 11.5648 17.1425ZM11.5648 15.146C10.5333 15.146 9.6515 14.7799 8.91944 14.0479C8.18738 13.3158 7.82135 12.434 7.82135 11.4025C7.82135 10.3709 8.18738 9.48914 8.91944 8.75708C9.6515 8.02502 10.5333 7.65899 11.5648 7.65899C12.5964 7.65899 13.4782 8.02502 14.2102 8.75708C14.9423 9.48914 15.3083 10.3709 15.3083 11.4025C15.3083 12.434 14.9423 13.3158 14.2102 14.0479C13.4782 14.7799 12.5964 15.146 11.5648 15.146Z" fill="#FECC00"/>
</g>
<defs>
<clipPath id="clip0_1_6435">
<rect width="23" height="23" fill="white" transform="translate(0 0.0302734)"/>
</clipPath>
</defs>
</svg>
