<svg width="26" height="21" viewBox="0 0 26 21" fill="none" xmlns="http://www.w3.org/2000/svg">
<g clip-path="url(#clip0_1_6429)">
<mask id="mask0_1_6429" style="mask-type:alpha" maskUnits="userSpaceOnUse" x="0" y="0" width="26" height="20">
<path d="M25.7214 4.69693C25.5803 3.74072 25.2312 2.82933 24.7 2.03026C23.9923 1.34606 23.0711 0.941147 22.1 0.887406C18.4786 0.69693 13 0.69693 13 0.69693C13 0.69693 7.52143 0.69693 3.9 0.982644C2.92354 0.911159 1.96791 1.29621 1.3 2.03026C0.755213 2.82187 0.404811 3.73668 0.278571 4.69693C0.107575 6.11903 0.0145714 7.54985 0 8.98265V10.9826C0.00982838 12.4156 0.10285 13.8467 0.278571 15.2684C0.419746 16.2246 0.76884 17.136 1.3 17.935C2.09955 18.6498 3.11821 19.0542 4.17857 19.0779C6.22143 19.2684 13 19.3636 13 19.3636C13 19.3636 18.4786 19.3636 22.1 19.0779C23.0711 19.0241 23.9923 18.6192 24.7 17.935C25.2448 17.1434 25.5952 16.2286 25.7214 15.2684C25.8924 13.8463 25.9854 12.4154 26 10.9826V8.98265C25.9854 7.54985 25.8924 6.11903 25.7214 4.69693ZM10.3071 13.4588V5.93503L17.3643 9.64931L10.3071 13.4588Z" fill="white"/>
</mask>
<g mask="url(#mask0_1_6429)">
<path d="M25.7214 4.69693C25.5803 3.74072 25.2312 2.82933 24.7 2.03026C23.9923 1.34606 23.0711 0.941147 22.1 0.887406C18.4786 0.69693 13 0.69693 13 0.69693C13 0.69693 7.52143 0.69693 3.9 0.982644C2.92354 0.911159 1.96791 1.29621 1.3 2.03026C0.755213 2.82187 0.404811 3.73668 0.278571 4.69693C0.107575 6.11903 0.0145714 7.54985 0 8.98265V10.9826C0.00982838 12.4156 0.10285 13.8467 0.278571 15.2684C0.419746 16.2246 0.76884 17.136 1.3 17.935C2.09955 18.6498 3.11821 19.0542 4.17857 19.0779C6.22143 19.2684 13 19.3636 13 19.3636C13 19.3636 18.4786 19.3636 22.1 19.0779C23.0711 19.0241 23.9923 18.6192 24.7 17.935C25.2448 17.1434 25.5952 16.2286 25.7214 15.2684C25.8924 13.8463 25.9854 12.4154 26 10.9826V8.98265C25.9854 7.54985 25.8924 6.11903 25.7214 4.69693ZM10.3071 13.4588V5.93503L17.3643 9.64931L10.3071 13.4588Z" fill="#FECC00"/>
</g>
</g>
<defs>
<clipPath id="clip0_1_6429">
<rect width="26" height="20" fill="white" transform="translate(0 0.0302734)"/>
</clipPath>
</defs>
</svg>
