<svg width="24" height="25" viewBox="0 0 24 25" fill="none" xmlns="http://www.w3.org/2000/svg">
<g clip-path="url(#clip0_1_6438)">
<path d="M6.32464 12.8127H8.95541V23.6432C8.95541 23.857 9.12866 24.0303 9.3425 24.0303H13.8031C14.0169 24.0303 14.1902 23.857 14.1902 23.6432V12.8637H17.2145C17.4111 12.8637 17.5766 12.7161 17.5991 12.5208L18.0584 8.53359C18.071 8.4239 18.0363 8.31402 17.9629 8.23171C17.8894 8.14935 17.7843 8.1022 17.6739 8.1022H14.1904V5.60277C14.1904 4.84935 14.596 4.46727 15.3963 4.46727C15.5103 4.46727 17.6739 4.46727 17.6739 4.46727C17.8878 4.46727 18.061 4.29393 18.061 4.08018V0.420227C18.061 0.206383 17.8878 0.0331328 17.6739 0.0331328H14.5349C14.5128 0.0320547 14.4636 0.0302734 14.3912 0.0302734C13.8465 0.0302734 11.9534 0.137195 10.4579 1.51293C8.801 3.03749 9.03134 4.86285 9.08638 5.17935V8.1021H6.32459C6.11075 8.1021 5.9375 8.27535 5.9375 8.48919V12.4255C5.93755 12.6393 6.1108 12.8127 6.32464 12.8127Z" fill="#FECC00"/>
</g>
<defs>
<clipPath id="clip0_1_6438">
<rect width="24" height="24" fill="white" transform="translate(0 0.0302734)"/>
</clipPath>
</defs>
</svg>
